<svg width="64" height="64" viewBox="0 0 64 64" fill="none" xmlns="http://www.w3.org/2000/svg">
<rect width="64" height="64" rx="32" fill="#F57322"/>
<path d="M33.875 40.75V27C33.875 25.0109 34.6652 23.1032 36.0717 21.6967C37.4782 20.2902 39.3859 19.5 41.375 19.5C41.7065 19.5 42.0245 19.6317 42.2589 19.8661C42.4933 20.1005 42.625 20.4185 42.625 20.75C42.625 21.0815 42.4933 21.3995 42.2589 21.6339C42.0245 21.8683 41.7065 22 41.375 22C40.0502 22.0041 38.7808 22.5322 37.844 23.469C36.9072 24.4058 36.3791 25.6752 36.375 27V28.25H45.75C46.413 28.25 47.0489 28.5134 47.5178 28.9822C47.9866 29.4511 48.25 30.087 48.25 30.75V40.75C48.25 41.413 47.9866 42.0489 47.5178 42.5178C47.0489 42.9866 46.413 43.25 45.75 43.25H36.375C35.712 43.25 35.0761 42.9866 34.6072 42.5178C34.1384 42.0489 33.875 41.413 33.875 40.75ZM18.25 43.25H27.625C28.288 43.25 28.9239 42.9866 29.3928 42.5178C29.8616 42.0489 30.125 41.413 30.125 40.75V30.75C30.125 30.087 29.8616 29.4511 29.3928 28.9822C28.9239 28.5134 28.288 28.25 27.625 28.25H18.25V27C18.2541 25.6752 18.7822 24.4058 19.719 23.469C20.6558 22.5322 21.9252 22.0041 23.25 22C23.5815 22 23.8995 21.8683 24.1339 21.6339C24.3683 21.3995 24.5 21.0815 24.5 20.75C24.5 20.4185 24.3683 20.1005 24.1339 19.8661C23.8995 19.6317 23.5815 19.5 23.25 19.5C21.2609 19.5 19.3532 20.2902 17.9467 21.6967C16.5402 23.1032 15.75 25.0109 15.75 27V40.75C15.75 41.413 16.0134 42.0489 16.4822 42.5178C16.9511 42.9866 17.587 43.25 18.25 43.25Z" fill="white"/>
</svg>
