<svg width="29" height="29" viewBox="0 0 29 29" fill="none" xmlns="http://www.w3.org/2000/svg">
<path d="M14.4938 28.5701C11.7307 28.5711 9.02948 27.7526 6.73168 26.2182C4.43389 24.6838 2.64281 22.5023 1.58497 19.9498C0.527141 17.3973 0.250109 14.5884 0.788901 11.8784C1.32769 9.16845 2.65812 6.67915 4.61187 4.7254C6.56563 2.77164 9.05492 1.44122 11.7649 0.902426C14.4749 0.363635 17.2838 0.640667 19.8363 1.6985C22.3888 2.75633 24.5703 4.54745 26.1047 6.84524C27.6391 9.14303 28.4576 11.8443 28.4566 14.6073C28.4512 18.3088 26.9783 21.8571 24.361 24.4745C21.7436 27.0919 18.1953 28.5647 14.4938 28.5701ZM14.4938 2.14363C12.0287 2.14363 9.61896 2.87461 7.56932 4.24414C5.51968 5.61366 3.9222 7.56022 2.97885 9.83766C2.0355 12.1151 1.78868 14.6211 2.26959 17.0389C2.75051 19.4566 3.93756 21.6774 5.68063 23.4205C7.42371 25.1635 9.64452 26.3506 12.0622 26.8315C14.4799 27.3124 16.986 27.0656 19.2634 26.1222C21.5409 25.1789 23.4874 23.5814 24.8569 21.5318C26.2265 19.4821 26.9574 17.0724 26.9574 14.6073C26.9574 11.3003 25.6448 8.12855 23.3078 5.78872C20.9709 3.44889 17.8007 2.13236 14.4938 2.12829V2.14363Z" fill="#1A151A" fill-opacity="0.8"/>
<path fill-rule="evenodd" clip-rule="evenodd" d="M12.3044 14.6588V22.7479C12.3037 22.7758 12.3086 22.8037 12.3188 22.8297C12.3291 22.8558 12.3444 22.8795 12.3639 22.8995C12.3835 22.9195 12.4069 22.9355 12.4326 22.9463C12.4584 22.9572 12.4861 22.9628 12.5141 22.9627H15.5175C15.5455 22.9628 15.5732 22.9572 15.599 22.9463C15.6247 22.9355 15.6481 22.9195 15.6677 22.8995C15.6872 22.8795 15.7025 22.8558 15.7128 22.8297C15.723 22.8037 15.728 22.7758 15.7273 22.7479V14.5257H17.9069C17.96 14.5259 18.0111 14.5059 18.05 14.4698C18.089 14.4338 18.1128 14.3842 18.1166 14.3313L18.3264 11.855C18.3285 11.8259 18.3247 11.7967 18.3151 11.7692C18.3056 11.7416 18.2906 11.7164 18.2709 11.6948C18.2513 11.6733 18.2275 11.656 18.201 11.6439C18.1745 11.6319 18.1458 11.6253 18.1166 11.6247H15.7273V9.86465C15.7286 9.66742 15.8079 9.47872 15.9479 9.33974C16.0878 9.20075 16.277 9.12276 16.4742 9.12276H18.1525C18.2095 9.12276 18.2641 9.10014 18.3044 9.05984C18.3447 9.01954 18.3673 8.96487 18.3673 8.90788V6.4315C18.3674 6.40352 18.3618 6.37582 18.3509 6.35003C18.3401 6.32424 18.3241 6.30087 18.3041 6.28133C18.2841 6.26178 18.2604 6.24644 18.2343 6.2362C18.2083 6.22596 18.1804 6.22106 18.1525 6.22174H15.318C14.5187 6.22174 13.7522 6.53925 13.187 7.10441C12.6219 7.66957 12.3044 8.43609 12.3044 9.23534V11.6247H10.8001C10.7445 11.6247 10.6911 11.6468 10.6518 11.6861C10.6124 11.7255 10.5903 11.7788 10.5903 11.8345V14.316C10.5903 14.3716 10.6124 14.425 10.6518 14.4643C10.6911 14.5036 10.7445 14.5257 10.8001 14.5257H12.3044V14.6588Z" fill="#1A151A" fill-opacity="0.8"/>
</svg>
