<svg width="29" height="29" viewBox="0 0 29 29" fill="none" xmlns="http://www.w3.org/2000/svg">
<path d="M14.2934 28.6342C11.5499 28.6342 8.86793 27.8207 6.58678 26.2965C4.30562 24.7722 2.52768 22.6058 1.47778 20.0711C0.427882 17.5364 0.153185 14.7474 0.68842 12.0566C1.22365 9.36574 2.54477 6.89406 4.48473 4.95409C6.4247 3.01413 8.89638 1.69302 11.5872 1.15778C14.278 0.622545 17.0671 0.897242 19.6018 1.94714C22.1364 2.99704 24.3029 4.77498 25.8271 7.05614C27.3513 9.33729 28.1649 12.0192 28.1649 14.7627C28.1608 18.4404 26.6981 21.9664 24.0975 24.5669C21.497 27.1674 17.9711 28.6302 14.2934 28.6342ZM14.2934 2.21088C11.8109 2.21088 9.38406 2.94704 7.31991 4.32625C5.25577 5.70547 3.64699 7.66579 2.69696 9.95934C1.74694 12.2529 1.49837 14.7767 1.98268 17.2115C2.467 19.6463 3.66245 21.8828 5.41786 23.6383C7.17327 25.3937 9.40979 26.5891 11.8446 27.0734C14.2794 27.5578 16.8032 27.3092 19.0968 26.3591C21.3903 25.4091 23.3506 23.8003 24.7299 21.7362C26.1091 19.672 26.8452 17.2453 26.8452 14.7627C26.8425 11.4346 25.5192 8.24356 23.1659 5.89021C20.8126 3.53687 17.6215 2.21359 14.2934 2.21088ZM18.9735 9.13639C18.7711 9.13639 18.5734 9.19637 18.4052 9.30878C18.2369 9.42118 18.1058 9.58096 18.0284 9.76788C17.9509 9.9548 17.9307 10.1605 17.9702 10.3589C18.0096 10.5574 18.1071 10.7396 18.2501 10.8827C18.3932 11.0258 18.5755 11.1232 18.7739 11.1627C18.9723 11.2021 19.178 11.1819 19.3649 11.1045C19.5519 11.027 19.7116 10.8959 19.824 10.7277C19.9364 10.5595 19.9964 10.3617 19.9964 10.1594C19.9964 9.88805 19.8887 9.62787 19.6968 9.43603C19.505 9.24418 19.2448 9.13639 18.9735 9.13639ZM14.411 10.4509C13.558 10.4499 12.7239 10.7019 12.0141 11.1751C11.3044 11.6483 10.7509 12.3213 10.4238 13.1091C10.0966 13.8969 10.0105 14.7641 10.1763 15.6008C10.3421 16.4376 10.7524 17.2063 11.3552 17.8098C11.958 18.4134 12.7263 18.8245 13.5628 18.9913C14.3994 19.1581 15.2666 19.073 16.0548 18.7468C16.843 18.4206 17.5167 17.868 17.9907 17.1588C18.4647 16.4496 18.7177 15.6158 18.7177 14.7627C18.7164 13.6205 18.2624 12.5253 17.4551 11.7171C16.6479 10.9089 15.5533 10.4536 14.411 10.4509ZM14.411 17.5248C13.8647 17.5248 13.3307 17.3628 12.8765 17.0593C12.4223 16.7558 12.0683 16.3244 11.8592 15.8197C11.6502 15.315 11.5955 14.7597 11.7021 14.2239C11.8086 13.6881 12.0717 13.196 12.458 12.8097C12.8442 12.4234 13.3364 12.1603 13.8722 12.0538C14.408 11.9472 14.9633 12.0019 15.468 12.211C15.9727 12.42 16.4041 12.774 16.7075 13.2282C17.011 13.6825 17.173 14.2165 17.173 14.7627C17.173 15.1255 17.1016 15.4846 16.9628 15.8197C16.824 16.1548 16.6205 16.4593 16.364 16.7158C16.1076 16.9723 15.8031 17.1757 15.468 17.3145C15.1329 17.4533 14.7737 17.5248 14.411 17.5248ZM23.1063 11.1823C23.1022 9.79047 22.5464 8.45698 21.5608 7.47422C20.5752 6.49145 19.2401 5.9396 17.8482 5.9396H10.9073C9.51281 5.9396 8.17541 6.49357 7.18933 7.47965C6.20325 8.46573 5.64925 9.80317 5.64925 11.1977V18.1385C5.65466 19.53 6.21088 20.8627 7.19623 21.8452C8.18157 22.8276 9.51588 23.3799 10.9073 23.3813H17.8482C19.2427 23.3813 20.5801 22.8273 21.5662 21.8412C22.5523 20.8551 23.1063 19.5177 23.1063 18.1232V11.1823ZM21.4593 18.1232C21.4593 19.0809 21.0788 19.9994 20.4016 20.6766C19.7244 21.3539 18.8059 21.7343 17.8482 21.7343H10.9073C9.95004 21.7329 9.03232 21.3521 8.35541 20.6751C7.67849 19.9982 7.2976 19.0805 7.29625 18.1232V11.1823C7.2976 10.225 7.67849 9.30732 8.35541 8.6304C9.03232 7.95348 9.95004 7.5726 10.9073 7.57124H17.8482C18.8059 7.57124 19.7244 7.95169 20.4016 8.6289C21.0788 9.30611 21.4593 10.2246 21.4593 11.1823V18.1232Z" fill="#1A151A" fill-opacity="0.8"/>
</svg>
