<svg width="36" height="36" viewBox="0 0 36 36" fill="none" xmlns="http://www.w3.org/2000/svg">
<g clip-path="url(#clip0_213_663)">
<path d="M18 33C26.2843 33 33 26.2843 33 18C33 9.71573 26.2843 3 18 3C9.71573 3 3 9.71573 3 18C3 26.2843 9.71573 33 18 33Z" fill="white"/>
<path fill-rule="evenodd" clip-rule="evenodd" d="M22.5 16C22.8978 16 23.2794 16.158 23.5607 16.4393C23.842 16.7206 24 17.1022 24 17.5C24 17.8978 23.842 18.2794 23.5607 18.5607C23.2794 18.842 22.8978 19 22.5 19C11.6623 19 24.3377 19 13.5 19C13.1022 19 12.7206 18.842 12.4393 18.5607C12.158 18.2794 12 17.8978 12 17.5C12 17.1022 12.158 16.7206 12.4393 16.4393C12.7206 16.158 13.1022 16 13.5 16C24.3377 16 11.6623 16 22.5 16Z" fill="#1D2939"/>
</g>
<defs>
<clipPath id="clip0_213_663">
<rect width="36" height="36" fill="white"/>
</clipPath>
</defs>
</svg>
