<svg width="157" height="148" viewBox="0 0 157 148" fill="none" xmlns="http://www.w3.org/2000/svg">
<g opacity="0.06">
<path d="M129.355 129.623C128.616 139.377 122.42 147.949 107.128 147.949C90.4137 147.949 89.7905 139.784 78.1442 139.784C66.498 139.784 65.8746 147.949 49.1602 147.949C33.8681 147.949 27.6724 139.377 26.9332 129.623C25.9754 116.984 35.9856 110.482 41.3133 106.447C45.4838 103.289 50.2823 99.2834 52.9012 92.2498C57.3811 80.2189 64.6783 70.8732 78.1442 70.8732C91.6101 70.8732 98.9074 80.2189 103.387 92.2498C106.006 99.2832 110.805 103.289 114.975 106.447C120.303 110.482 130.313 116.984 129.355 129.623Z" fill="black"/>
<path d="M59.4721 58.399C49.4933 60.8324 38.2354 49.8067 34.3259 33.7728C30.4164 17.7399 35.3357 2.76986 45.3148 0.336487C55.2927 -2.09688 66.5505 8.92878 70.4603 24.9626C74.3696 40.9956 69.45 55.9657 59.4721 58.399Z" fill="black"/>
<path d="M34.4938 91.3227C26.067 96.0911 13.0258 88.9799 5.36406 75.4406C-2.29751 61.9013 -1.67773 47.0601 6.74889 42.2915C15.1748 37.5231 28.2161 44.6343 35.8777 58.1736C43.5393 71.7129 42.9199 86.5543 34.4938 91.3227Z" fill="black"/>
<path d="M96.8164 58.399C106.795 60.8324 118.053 49.8067 121.963 33.7728C125.872 17.7399 120.953 2.76986 110.974 0.336487C100.996 -2.09688 89.738 8.92878 85.8283 24.9626C81.9188 40.9956 86.8383 55.9657 96.8164 58.399Z" fill="black"/>
<path d="M121.794 91.3227C130.221 96.0911 143.262 88.9799 150.924 75.4406C158.586 61.9013 157.966 47.0601 149.539 42.2915C141.114 37.5231 128.072 44.6343 120.411 58.1736C112.749 71.7129 113.369 86.5543 121.794 91.3227Z" fill="black"/>
<path d="M97.0119 106.764C97.0085 111.829 94.296 116.599 90.6404 120.104C87.0512 123.545 82.6035 125.936 78.1441 128.14C73.6848 125.936 69.2373 123.545 65.6479 120.104C61.9923 116.599 59.2788 111.829 59.2764 106.764C59.2741 101.7 62.4795 96.504 67.3657 95.1724C70.5224 94.3128 74.0907 95.1724 76.51 97.3741C77.1416 97.9487 77.6893 98.6093 78.1441 99.3305C78.5988 98.6106 79.1467 97.9487 79.7783 97.3741C82.1965 95.1724 85.7659 94.313 88.9226 95.1724C93.8087 96.504 97.0142 101.7 97.0119 106.764Z" fill="white"/>
</g>
</svg>
