<svg width="36" height="36" viewBox="0 0 36 36" fill="none" xmlns="http://www.w3.org/2000/svg">
<g clip-path="url(#clip0_1611_169)">
<path d="M18 33C26.2843 33 33 26.2843 33 18C33 9.71573 26.2843 3 18 3C9.71573 3 3 9.71573 3 18C3 26.2843 9.71573 33 18 33Z" fill="#EAECF0"/>
<path fill-rule="evenodd" clip-rule="evenodd" d="M16.5 16.5V10.5C16.5 10.1022 16.658 9.72064 16.9393 9.43934C17.2206 9.15804 17.6022 9 18 9C18.3978 9 18.7794 9.15804 19.0607 9.43934C19.342 9.72064 19.5 10.1022 19.5 10.5V16.5H25.5C25.8978 16.5 26.2794 16.658 26.5607 16.9393C26.842 17.2206 27 17.6022 27 18C27 18.3978 26.842 18.7794 26.5607 19.0607C26.2794 19.342 25.8978 19.5 25.5 19.5H19.5V25.5C19.5 25.8978 19.342 26.2794 19.0607 26.5607C18.7794 26.842 18.3978 27 18 27C17.6022 27 17.2206 26.842 16.9393 26.5607C16.658 26.2794 16.5 25.8978 16.5 25.5V19.5H10.5C10.1022 19.5 9.72064 19.342 9.43934 19.0607C9.15804 18.7794 9 18.3978 9 18C9 17.6022 9.15804 17.2206 9.43934 16.9393C9.72064 16.658 10.1022 16.5 10.5 16.5H16.5Z" fill="#F37220"/>
</g>
<defs>
<clipPath id="clip0_1611_169">
<rect width="36" height="36" fill="white"/>
</clipPath>
</defs>
</svg>
