<svg width="121" height="120" viewBox="0 0 121 120" fill="none" xmlns="http://www.w3.org/2000/svg">
<g clip-path="url(#clip0_38_1967)">
<g clip-path="url(#clip1_38_1967)">
<path d="M60.0742 112.5C46.1504 112.5 32.7968 106.969 22.9511 97.1231C13.1055 87.2774 7.57422 73.9239 7.57422 60C7.57422 46.0761 13.1055 32.7226 22.9511 22.8769C32.7968 13.0312 46.1504 7.5 60.0742 7.5C73.9981 7.5 87.3517 13.0312 97.1973 22.8769C107.043 32.7226 112.574 46.0761 112.574 60C112.574 73.9239 107.043 87.2774 97.1973 97.1231C87.3517 106.969 73.9981 112.5 60.0742 112.5ZM60.0742 120C75.9872 120 91.2484 113.679 102.501 102.426C113.753 91.1742 120.074 75.913 120.074 60C120.074 44.087 113.753 28.8258 102.501 17.5736C91.2484 6.32141 75.9872 0 60.0742 0C44.1612 0 28.9 6.32141 17.6478 17.5736C6.39563 28.8258 0.0742188 44.087 0.0742188 60C0.0742188 75.913 6.39563 91.1742 17.6478 102.426C28.9 113.679 44.1612 120 60.0742 120Z" fill="#7FCA4D"/>
<path d="M32.2147 71.7525C33.076 71.2552 34.0996 71.1205 35.0602 71.3779C36.0209 71.6353 36.8399 72.2637 37.3372 73.125C39.6417 77.1165 42.9566 80.4309 46.9484 82.7349C50.9402 85.0389 55.4682 86.2512 60.0772 86.25C64.6862 86.2512 69.2143 85.0389 73.2061 82.7349C77.1979 80.4309 80.5127 77.1165 82.8172 73.125C83.0617 72.6951 83.3887 72.3177 83.7796 72.0147C84.1704 71.7117 84.6174 71.489 85.0947 71.3595C85.5719 71.2299 86.0701 71.196 86.5605 71.2597C87.051 71.3235 87.5239 71.4836 87.9522 71.7309C88.3805 71.9782 88.7557 72.3077 89.0561 72.7006C89.3565 73.0934 89.5762 73.5418 89.7026 74.02C89.829 74.4981 89.8596 74.9965 89.7926 75.4865C89.7256 75.9765 89.5624 76.4484 89.3122 76.875C86.3495 82.0066 82.0879 86.2678 76.956 89.23C71.8241 92.1923 66.0027 93.7512 60.0772 93.75C54.1518 93.7512 48.3304 92.1923 43.1985 89.23C38.0666 86.2678 33.805 82.0066 30.8422 76.875C30.345 76.0137 30.2102 74.9902 30.4676 74.0295C30.725 73.0689 31.3535 72.2498 32.2147 71.7525ZM52.5772 48.75C52.5772 54.96 49.2172 60 45.0772 60C40.9372 60 37.5772 54.96 37.5772 48.75C37.5772 42.54 40.9372 37.5 45.0772 37.5C49.2172 37.5 52.5772 42.54 52.5772 48.75ZM82.5772 48.75C82.5772 54.96 79.2172 60 75.0772 60C70.9372 60 67.5772 54.96 67.5772 48.75C67.5772 42.54 70.9372 37.5 75.0772 37.5C79.2172 37.5 82.5772 42.54 82.5772 48.75Z" fill="#7FCA4D"/>
</g>
</g>
<defs>
<clipPath id="clip0_38_1967">
<rect width="120" height="120" fill="white" transform="translate(0.5)"/>
</clipPath>
<clipPath id="clip1_38_1967">
<rect width="120" height="120" fill="white" transform="translate(0.0742188)"/>
</clipPath>
</defs>
</svg>
