<svg width="149" height="26" viewBox="0 0 149 26" fill="none" xmlns="http://www.w3.org/2000/svg">
<rect width="26.0001" height="26" transform="translate(0.609863)" fill="#00B67A"/>
<path d="M13.6099 1.76025L16.1333 9.5267L24.2995 9.5267L17.6929 14.3266L20.2164 22.0931L13.6099 17.2932L7.0033 22.0931L9.52678 14.3266L2.92023 9.5267L11.0864 9.5267L13.6099 1.76025Z" fill="white"/>
<rect width="26.0001" height="26" transform="translate(29.73)" fill="#00B67A"/>
<path d="M42.73 1.76025L45.2535 9.5267L53.4196 9.5267L46.813 14.3266L49.3365 22.0931L42.73 17.2932L36.1234 22.0931L38.6469 14.3266L32.0403 9.5267L40.2065 9.5267L42.73 1.76025Z" fill="white"/>
<rect width="26.0001" height="26" transform="translate(58.8496)" fill="#00B67A"/>
<path d="M71.8486 1.76025L74.3721 9.5267L82.5383 9.5267L75.9317 14.3266L78.4552 22.0931L71.8486 17.2932L65.2421 22.0931L67.7656 14.3266L61.159 9.5267L69.3251 9.5267L71.8486 1.76025Z" fill="white"/>
<rect width="26.0001" height="26" transform="translate(87.9697)" fill="#00B67A"/>
<path d="M100.97 1.76038L103.493 9.52682L111.659 9.52682L105.053 14.3268L107.576 22.0932L100.97 17.2933L94.3632 22.0932L96.8866 14.3268L90.2801 9.52682L98.4462 9.52682L100.97 1.76038Z" fill="white"/>
<rect x="117.436" width="15.3521" height="26" fill="#00B67A"/>
<rect x="132.788" width="15.3521" height="26" fill="#DCDCE6"/>
<path d="M131.422 1.76025L133.946 9.5267L142.112 9.5267L135.505 14.3266L138.029 22.0931L131.422 17.2932L124.816 22.0931L127.339 14.3266L120.733 9.5267L128.899 9.5267L131.422 1.76025Z" fill="white"/>
</svg>
