<svg width="29" height="29" viewBox="0 0 29 29" fill="none" xmlns="http://www.w3.org/2000/svg">
<path d="M14.6153 28.5701C11.8523 28.5711 9.15109 27.7526 6.8533 26.2182C4.5555 24.6838 2.76439 22.5023 1.70656 19.9498C0.648723 17.3973 0.371691 14.5884 0.910483 11.8784C1.44927 9.16845 2.7797 6.67915 4.73345 4.7254C6.68721 2.77164 9.17651 1.44122 11.8865 0.902426C14.5965 0.363635 17.4054 0.640667 19.9579 1.6985C22.5104 2.75633 24.6919 4.54745 26.2263 6.84524C27.7607 9.14303 28.5792 11.8443 28.5782 14.6073C28.5727 18.3088 27.0999 21.8571 24.4826 24.4745C21.8652 27.0919 18.3168 28.5647 14.6153 28.5701ZM14.6153 2.14363C12.1503 2.14363 9.74054 2.87461 7.6909 4.24414C5.64126 5.61366 4.04375 7.56022 3.1004 9.83766C2.15705 12.1151 1.91023 14.6211 2.39114 17.0389C2.87206 19.4566 4.05914 21.6774 5.80221 23.4205C7.54529 25.1635 9.76607 26.3506 12.1838 26.8315C14.6015 27.3124 17.1075 27.0656 19.385 26.1222C21.6624 25.1789 23.609 23.5814 24.9785 21.5318C26.3481 19.4821 27.079 17.0724 27.079 14.6073C27.079 11.3003 25.7664 8.12855 23.4294 5.78872C21.0925 3.44889 17.9223 2.13236 14.6153 2.12829V2.14363Z" fill="#1A151A" fill-opacity="0.8"/>
<path d="M20.6324 19.7318L16.8199 13.7443L20.5524 9.63865C20.6834 9.49102 20.7509 9.29771 20.7403 9.10064C20.7297 8.90357 20.6419 8.71862 20.4958 8.58589C20.3498 8.45316 20.1573 8.38335 19.9601 8.39159C19.7629 8.39982 19.5769 8.48545 19.4424 8.6299L15.9881 12.4324L13.6324 8.73178C13.5647 8.62534 13.4713 8.53769 13.3607 8.47695C13.2502 8.41621 13.1261 8.38434 12.9999 8.38428H9.99994C9.86559 8.38434 9.73373 8.42049 9.61813 8.48895C9.50252 8.55741 9.40744 8.65566 9.3428 8.77344C9.27816 8.89122 9.24634 9.0242 9.25068 9.15848C9.25502 9.29276 9.29534 9.42341 9.36744 9.53678L13.1799 15.5243L9.44494 19.6299C9.37732 19.7025 9.32478 19.7879 9.29039 19.881C9.25599 19.9741 9.24041 20.0731 9.24455 20.1722C9.24869 20.2714 9.27248 20.3688 9.31452 20.4587C9.35657 20.5486 9.41604 20.6292 9.48949 20.696C9.56293 20.7627 9.6489 20.8142 9.7424 20.8475C9.8359 20.8808 9.93508 20.8952 10.0342 20.8898C10.1333 20.8845 10.2304 20.8596 10.3197 20.8164C10.4091 20.7733 10.4891 20.7129 10.5549 20.6387L14.0118 16.8362L16.3674 20.5368C16.4351 20.6432 16.5286 20.7309 16.6392 20.7916C16.7497 20.8523 16.8738 20.8842 16.9999 20.8843H19.9999C20.1343 20.8842 20.2662 20.8481 20.3818 20.7796C20.4974 20.7111 20.5925 20.6129 20.6571 20.4951C20.7217 20.3773 20.7535 20.2444 20.7492 20.1101C20.7449 19.9758 20.7045 19.8451 20.6324 19.7318ZM17.4118 19.3843L11.3662 9.88428H12.5881L18.6337 19.3843H17.4118Z" fill="black"/>
</svg>
